<svg xmlns="http://www.w3.org/2000/svg" viewBox="0 0 440 560" fill="none" stroke="#000000" stroke-width="1.6" stroke-linecap="round" stroke-linejoin="round">
  <title>A decoder-only transformer</title>
  <text x="150.0" y="550.0" text-anchor="middle" font-size="12" font-style="normal" fill="#000000" stroke="none">tokens</text>
  <path d="M150.0 536.0 L150.0 513.0" fill="none" stroke="#000000"/>
  <path d="M150.0 506.0 L153.6 514.0 L146.4 514.0 Z" fill="#000000" stroke="none"/>
  <rect x="70.0" y="478.0" width="160.0" height="28.0" rx="4" fill="none" stroke="#000000"/>
  <text x="150.0" y="496.0" text-anchor="middle" font-size="12" font-style="normal" fill="#000000" stroke="none">Embedding</text>
  <path d="M150.0 478.0 L150.0 453.0" fill="none" stroke="#000000"/>
  <path d="M150.0 446.0 L153.6 454.0 L146.4 454.0 Z" fill="#000000" stroke="none"/>
  <circle cx="150.0" cy="437.0" r="9" fill="none" stroke="#000000"/>
  <path d="M144.6 437.0 L155.4 437.0" fill="none" stroke="#000000"/>
  <path d="M150.0 431.6 L150.0 442.4" fill="none" stroke="#000000"/>
  <text x="124.0" y="441.0" text-anchor="end" font-size="12" font-style="normal" fill="#000000" stroke="none">PE</text>
  <path d="M128.0 437.0 L141.0 437.0" fill="none" stroke="#000000"/>
  <path d="M150.0 428.0 L150.0 403.0" fill="none" stroke="#000000"/>
  <path d="M150.0 396.0 L153.6 404.0 L146.4 404.0 Z" fill="#000000" stroke="none"/>
  <rect x="50.0" y="156.0" width="200.0" height="240.0" rx="10" fill="none" stroke="#000000" stroke-dasharray="5 4"/>
  <text x="42.0" y="280.0" text-anchor="end" font-size="14" font-style="normal" fill="#000000" stroke="none">×N</text>
  <rect x="70.0" y="340.0" width="160.0" height="28.0" rx="4" fill="none" stroke="#000000"/>
  <text x="150.0" y="358.0" text-anchor="middle" font-size="12" font-style="normal" fill="#000000" stroke="none">Masked attention</text>
  <rect x="70.0" y="294.0" width="160.0" height="28.0" rx="4" fill="none" stroke="#000000"/>
  <text x="150.0" y="312.0" text-anchor="middle" font-size="12" font-style="normal" fill="#000000" stroke="none">Add &amp; norm</text>
  <rect x="70.0" y="232.0" width="160.0" height="28.0" rx="4" fill="none" stroke="#000000"/>
  <text x="150.0" y="250.0" text-anchor="middle" font-size="12" font-style="normal" fill="#000000" stroke="none">Feed-forward</text>
  <rect x="70.0" y="186.0" width="160.0" height="28.0" rx="4" fill="none" stroke="#000000"/>
  <text x="150.0" y="204.0" text-anchor="middle" font-size="12" font-style="normal" fill="#000000" stroke="none">Add &amp; norm</text>
  <path d="M150.0 396.0 L150.0 380.0" fill="none" stroke="#000000"/>
  <path d="M150.0 380.0 L120.0 380.0 L120.0 375.0" fill="none" stroke="#000000"/>
  <path d="M120.0 368.0 L123.6 376.0 L116.4 376.0 Z" fill="#000000" stroke="none"/>
  <path d="M150.0 380.0 L150.0 380.0 L150.0 375.0" fill="none" stroke="#000000"/>
  <path d="M150.0 368.0 L153.6 376.0 L146.4 376.0 Z" fill="#000000" stroke="none"/>
  <path d="M150.0 380.0 L180.0 380.0 L180.0 375.0" fill="none" stroke="#000000"/>
  <path d="M180.0 368.0 L183.6 376.0 L176.4 376.0 Z" fill="#000000" stroke="none"/>
  <path d="M150.0 340.0 L150.0 329.0" fill="none" stroke="#000000"/>
  <path d="M150.0 322.0 L153.6 330.0 L146.4 330.0 Z" fill="#000000" stroke="none"/>
  <path d="M150.0 294.0 L150.0 267.0" fill="none" stroke="#000000"/>
  <path d="M150.0 260.0 L153.6 268.0 L146.4 268.0 Z" fill="#000000" stroke="none"/>
  <path d="M150.0 232.0 L150.0 221.0" fill="none" stroke="#000000"/>
  <path d="M150.0 214.0 L153.6 222.0 L146.4 222.0 Z" fill="#000000" stroke="none"/>
  <path d="M150.0 386.0 L240.0 386.0 L240.0 308.0 L237.0 308.0" fill="none" stroke="#000000"/>
  <path d="M230.0 308.0 L238.0 304.4 L238.0 311.6 Z" fill="#000000" stroke="none"/>
  <path d="M150.0 276.0 L240.0 276.0 L240.0 200.0 L237.0 200.0" fill="none" stroke="#000000"/>
  <path d="M230.0 200.0 L238.0 196.4 L238.0 203.6 Z" fill="#000000" stroke="none"/>
  <path d="M150.0 186.0 L150.0 153.0" fill="none" stroke="#000000"/>
  <path d="M150.0 146.0 L153.6 154.0 L146.4 154.0 Z" fill="#000000" stroke="none"/>
  <rect x="70.0" y="118.0" width="160.0" height="28.0" rx="4" fill="none" stroke="#000000"/>
  <text x="150.0" y="136.0" text-anchor="middle" font-size="12" font-style="normal" fill="#000000" stroke="none">Linear</text>
  <path d="M150.0 118.0 L150.0 103.0" fill="none" stroke="#000000"/>
  <path d="M150.0 96.0 L153.6 104.0 L146.4 104.0 Z" fill="#000000" stroke="none"/>
  <rect x="70.0" y="68.0" width="160.0" height="28.0" rx="4" fill="none" stroke="#000000"/>
  <text x="150.0" y="86.0" text-anchor="middle" font-size="12" font-style="normal" fill="#000000" stroke="none">Softmax</text>
  <path d="M150.0 68.0 L150.0 47.0" fill="none" stroke="#000000"/>
  <path d="M150.0 40.0 L153.6 48.0 L146.4 48.0 Z" fill="#000000" stroke="none"/>
  <text x="150.0" y="28.0" text-anchor="middle" font-size="12" font-style="normal" fill="#000000" stroke="none">a next-token distribution at every position</text>
  <text x="355.0" y="266.0" text-anchor="middle" font-size="11" font-style="normal" fill="#000000" stroke="none">the causal mask</text>
  <text x="355.0" y="282.0" text-anchor="middle" font-size="10" font-style="normal" fill="#000000" stroke="none">key position j →</text>
  <text x="294.0" y="355.0" text-anchor="end" font-size="11" font-style="italic" fill="#000000" stroke="none">i</text>
  <rect x="300.0" y="300.0" width="22.0" height="22.0" rx="0" fill="#0000ff" stroke="#000000" stroke-width="0.8"/>
  <rect x="322.0" y="300.0" width="22.0" height="22.0" rx="0" fill="none" stroke="#000000" stroke-width="0.8"/>
  <rect x="344.0" y="300.0" width="22.0" height="22.0" rx="0" fill="none" stroke="#000000" stroke-width="0.8"/>
  <rect x="366.0" y="300.0" width="22.0" height="22.0" rx="0" fill="none" stroke="#000000" stroke-width="0.8"/>
  <rect x="388.0" y="300.0" width="22.0" height="22.0" rx="0" fill="none" stroke="#000000" stroke-width="0.8"/>
  <rect x="300.0" y="322.0" width="22.0" height="22.0" rx="0" fill="#0000ff" stroke="#000000" stroke-width="0.8"/>
  <rect x="322.0" y="322.0" width="22.0" height="22.0" rx="0" fill="#0000ff" stroke="#000000" stroke-width="0.8"/>
  <rect x="344.0" y="322.0" width="22.0" height="22.0" rx="0" fill="none" stroke="#000000" stroke-width="0.8"/>
  <rect x="366.0" y="322.0" width="22.0" height="22.0" rx="0" fill="none" stroke="#000000" stroke-width="0.8"/>
  <rect x="388.0" y="322.0" width="22.0" height="22.0" rx="0" fill="none" stroke="#000000" stroke-width="0.8"/>
  <rect x="300.0" y="344.0" width="22.0" height="22.0" rx="0" fill="#0000ff" stroke="#000000" stroke-width="0.8"/>
  <rect x="322.0" y="344.0" width="22.0" height="22.0" rx="0" fill="#0000ff" stroke="#000000" stroke-width="0.8"/>
  <rect x="344.0" y="344.0" width="22.0" height="22.0" rx="0" fill="#0000ff" stroke="#000000" stroke-width="0.8"/>
  <rect x="366.0" y="344.0" width="22.0" height="22.0" rx="0" fill="none" stroke="#000000" stroke-width="0.8"/>
  <rect x="388.0" y="344.0" width="22.0" height="22.0" rx="0" fill="none" stroke="#000000" stroke-width="0.8"/>
  <rect x="300.0" y="366.0" width="22.0" height="22.0" rx="0" fill="#0000ff" stroke="#000000" stroke-width="0.8"/>
  <rect x="322.0" y="366.0" width="22.0" height="22.0" rx="0" fill="#0000ff" stroke="#000000" stroke-width="0.8"/>
  <rect x="344.0" y="366.0" width="22.0" height="22.0" rx="0" fill="#0000ff" stroke="#000000" stroke-width="0.8"/>
  <rect x="366.0" y="366.0" width="22.0" height="22.0" rx="0" fill="#0000ff" stroke="#000000" stroke-width="0.8"/>
  <rect x="388.0" y="366.0" width="22.0" height="22.0" rx="0" fill="none" stroke="#000000" stroke-width="0.8"/>
  <rect x="300.0" y="388.0" width="22.0" height="22.0" rx="0" fill="#0000ff" stroke="#000000" stroke-width="0.8"/>
  <rect x="322.0" y="388.0" width="22.0" height="22.0" rx="0" fill="#0000ff" stroke="#000000" stroke-width="0.8"/>
  <rect x="344.0" y="388.0" width="22.0" height="22.0" rx="0" fill="#0000ff" stroke="#000000" stroke-width="0.8"/>
  <rect x="366.0" y="388.0" width="22.0" height="22.0" rx="0" fill="#0000ff" stroke="#000000" stroke-width="0.8"/>
  <rect x="388.0" y="388.0" width="22.0" height="22.0" rx="0" fill="#0000ff" stroke="#000000" stroke-width="0.8"/>
  <text x="355.0" y="426.0" text-anchor="middle" font-size="10" font-style="normal" fill="#000000" stroke="none">filled: attended</text>
  <text x="355.0" y="440.0" text-anchor="middle" font-size="10" font-style="normal" fill="#000000" stroke="none">empty: set to −∞</text>
  <path d="M282.0 305.0 L234.0 354.0" fill="none" stroke="#000000" stroke-dasharray="3 3"/>
</svg>
