<svg xmlns="http://www.w3.org/2000/svg" viewBox="0 0 400 460" fill="none" stroke="#000000" stroke-width="1.6" stroke-linecap="round" stroke-linejoin="round">
  <title>Gradients through residual blocks</title>
  <text x="130.0" y="22.0" text-anchor="middle" font-size="12" font-style="normal" fill="#000000" stroke="none">∂L/∂R from the layers above</text>
  <path d="M130.0 32.0 L130.0 94.0" fill="none" stroke="#0000ff"/>
  <path d="M130.0 101.0 L126.4 93.0 L133.6 93.0 Z" fill="#0000ff" stroke="none"/>
  <circle cx="130.0" cy="110.0" r="9" fill="none" stroke="#000000"/>
  <path d="M124.6 110.0 L135.4 110.0" fill="none" stroke="#000000"/>
  <path d="M130.0 104.6 L130.0 115.4" fill="none" stroke="#000000"/>
  <path d="M130.0 119.0 L130.0 216.0" fill="none" stroke="#0000ff"/>
  <path d="M130.0 223.0 L126.4 215.0 L133.6 215.0 Z" fill="#0000ff" stroke="none"/>
  <path d="M139.0 110.0 L260.0 110.0" fill="none" stroke="#000000"/>
  <path d="M260.0 110.0 L260.0 143.0" fill="none" stroke="#000000"/>
  <path d="M260.0 150.0 L256.4 142.0 L263.6 142.0 Z" fill="#000000" stroke="none"/>
  <rect x="205.0" y="150.0" width="110.0" height="40.0" rx="4" fill="none" stroke="#000000"/>
  <text x="260.0" y="174.0" text-anchor="middle" font-size="12" font-style="normal" fill="#000000" stroke="none">sub-layer</text>
  <path d="M260.0 190.0 L260.0 225.0 L140.0 225.0" fill="none" stroke="#000000"/>
  <path d="M133.0 225.0 L141.0 221.4 L141.0 228.6 Z" fill="#000000" stroke="none"/>
  <circle cx="130.0" cy="225.0" r="3" fill="#000000" stroke="none"/>
  <text x="120.0" y="167.5" text-anchor="end" font-size="11" font-style="normal" fill="#0000ff" stroke="none">identity</text>
  <text x="268.0" y="206.0" text-anchor="start" font-size="11" font-style="normal" fill="#000000" stroke="none">× ∂Z/∂X</text>
  <path d="M130.0 228.0 L130.0 259.0" fill="none" stroke="#0000ff"/>
  <path d="M130.0 266.0 L126.4 258.0 L133.6 258.0 Z" fill="#0000ff" stroke="none"/>
  <circle cx="130.0" cy="275.0" r="9" fill="none" stroke="#000000"/>
  <path d="M124.6 275.0 L135.4 275.0" fill="none" stroke="#000000"/>
  <path d="M130.0 269.6 L130.0 280.4" fill="none" stroke="#000000"/>
  <path d="M130.0 284.0 L130.0 381.0" fill="none" stroke="#0000ff"/>
  <path d="M130.0 388.0 L126.4 380.0 L133.6 380.0 Z" fill="#0000ff" stroke="none"/>
  <path d="M139.0 275.0 L260.0 275.0" fill="none" stroke="#000000"/>
  <path d="M260.0 275.0 L260.0 308.0" fill="none" stroke="#000000"/>
  <path d="M260.0 315.0 L256.4 307.0 L263.6 307.0 Z" fill="#000000" stroke="none"/>
  <rect x="205.0" y="315.0" width="110.0" height="40.0" rx="4" fill="none" stroke="#000000"/>
  <text x="260.0" y="339.0" text-anchor="middle" font-size="12" font-style="normal" fill="#000000" stroke="none">sub-layer</text>
  <path d="M260.0 355.0 L260.0 390.0 L140.0 390.0" fill="none" stroke="#000000"/>
  <path d="M133.0 390.0 L141.0 386.4 L141.0 393.6 Z" fill="#000000" stroke="none"/>
  <circle cx="130.0" cy="390.0" r="3" fill="#000000" stroke="none"/>
  <text x="120.0" y="332.5" text-anchor="end" font-size="11" font-style="normal" fill="#0000ff" stroke="none">identity</text>
  <text x="268.0" y="371.0" text-anchor="start" font-size="11" font-style="normal" fill="#000000" stroke="none">× ∂Z/∂X</text>
  <path d="M130.0 393.0 L130.0 418.0" fill="none" stroke="#0000ff"/>
  <path d="M130.0 425.0 L126.4 417.0 L133.6 417.0 Z" fill="#0000ff" stroke="none"/>
  <text x="130.0" y="444.0" text-anchor="middle" font-size="12" font-style="normal" fill="#000000" stroke="none">∂L/∂X at the input</text>
  <text x="390.0" y="106.0" text-anchor="end" font-size="10" font-style="normal" fill="#000000" stroke="none">the add node copies</text>
  <text x="390.0" y="120.0" text-anchor="end" font-size="10" font-style="normal" fill="#000000" stroke="none">the gradient to both paths</text>
</svg>
