<svg xmlns="http://www.w3.org/2000/svg" viewBox="0 0 330 160" fill="none" stroke="#000000" stroke-width="1.6" stroke-linecap="round" stroke-linejoin="round">
  <title>Merges build the word lowest from its characters</title>
  <rect x="20" y="16" width="20" height="24" rx="3"/>
  <text x="30" y="33" text-anchor="middle" font-size="13" fill="#000000" stroke="none">l</text>
  <rect x="44" y="16" width="20" height="24" rx="3"/>
  <text x="54" y="33" text-anchor="middle" font-size="13" fill="#000000" stroke="none">o</text>
  <rect x="68" y="16" width="20" height="24" rx="3"/>
  <text x="78" y="33" text-anchor="middle" font-size="13" fill="#000000" stroke="none">w</text>
  <rect x="92" y="16" width="20" height="24" rx="3"/>
  <text x="102" y="33" text-anchor="middle" font-size="13" fill="#000000" stroke="none">e</text>
  <rect x="116" y="16" width="20" height="24" rx="3"/>
  <text x="126" y="33" text-anchor="middle" font-size="13" fill="#000000" stroke="none">s</text>
  <rect x="140" y="16" width="20" height="24" rx="3"/>
  <text x="150" y="33" text-anchor="middle" font-size="13" fill="#000000" stroke="none">t</text>
  <text x="190" y="33" font-size="12" fill="#000000" stroke="none">the characters</text>
  <rect x="20" y="52" width="40" height="24" rx="3" stroke="#0000ff" stroke-width="2.4"/>
  <text x="40" y="69" text-anchor="middle" font-size="13" fill="#000000" stroke="none">lo</text>
  <rect x="64" y="52" width="20" height="24" rx="3"/>
  <text x="74" y="69" text-anchor="middle" font-size="13" fill="#000000" stroke="none">w</text>
  <rect x="88" y="52" width="20" height="24" rx="3"/>
  <text x="98" y="69" text-anchor="middle" font-size="13" fill="#000000" stroke="none">e</text>
  <rect x="112" y="52" width="20" height="24" rx="3"/>
  <text x="122" y="69" text-anchor="middle" font-size="13" fill="#000000" stroke="none">s</text>
  <rect x="136" y="52" width="20" height="24" rx="3"/>
  <text x="146" y="69" text-anchor="middle" font-size="13" fill="#000000" stroke="none">t</text>
  <text x="190" y="69" font-size="12" fill="#000000" stroke="none">merge (l, o)</text>
  <rect x="20" y="88" width="60" height="24" rx="3" stroke="#0000ff" stroke-width="2.4"/>
  <text x="50" y="105" text-anchor="middle" font-size="13" fill="#000000" stroke="none">low</text>
  <rect x="84" y="88" width="20" height="24" rx="3"/>
  <text x="94" y="105" text-anchor="middle" font-size="13" fill="#000000" stroke="none">e</text>
  <rect x="108" y="88" width="20" height="24" rx="3"/>
  <text x="118" y="105" text-anchor="middle" font-size="13" fill="#000000" stroke="none">s</text>
  <rect x="132" y="88" width="20" height="24" rx="3"/>
  <text x="142" y="105" text-anchor="middle" font-size="13" fill="#000000" stroke="none">t</text>
  <text x="190" y="105" font-size="12" fill="#000000" stroke="none">merge (lo, w)</text>
  <rect x="20" y="124" width="80" height="24" rx="3" stroke="#0000ff" stroke-width="2.4"/>
  <text x="60" y="141" text-anchor="middle" font-size="13" fill="#000000" stroke="none">lowe</text>
  <rect x="104" y="124" width="20" height="24" rx="3"/>
  <text x="114" y="141" text-anchor="middle" font-size="13" fill="#000000" stroke="none">s</text>
  <rect x="128" y="124" width="20" height="24" rx="3"/>
  <text x="138" y="141" text-anchor="middle" font-size="13" fill="#000000" stroke="none">t</text>
  <text x="190" y="141" font-size="12" fill="#000000" stroke="none">merge (low, e)</text>
</svg>
