<svg xmlns="http://www.w3.org/2000/svg" viewBox="0 0 350 140" fill="none" stroke="#000000" stroke-width="1.6" stroke-linecap="round" stroke-linejoin="round">
  <title>Tokens become indices, and indices become the rows of X</title>
  <text x="36" y="18" text-anchor="middle" font-size="11" fill="#000000" stroke="none">token</text>
  <text x="118" y="18" text-anchor="middle" font-size="11" fill="#000000" stroke="none">index</text>
  <text x="250" y="18" text-anchor="middle" font-size="11" fill="#000000" stroke="none"><tspan font-weight="bold">X</tspan>, <tspan font-style="italic">T</tspan> × <tspan font-style="italic">d</tspan></text>
  <rect x="180" y="28" width="140" height="90"/>
  <line x1="180" y1="58" x2="320" y2="58" stroke-width="0.6"/>
  <line x1="180" y1="88" x2="320" y2="88" stroke-width="0.6"/>
  <rect x="180" y="58" width="140" height="30" stroke="#0000ff" stroke-width="2.4"/>
  <text x="36" y="48" text-anchor="middle" font-size="13" fill="#000000" stroke="none">The</text>
  <line x1="58" y1="44" x2="84" y2="44"/>
  <path d="M92 44 L84 40.5 L84 47.5 Z" fill="#000000" stroke="none"/>
  <text x="118" y="48" text-anchor="middle" font-size="13" fill="#000000" stroke="none">464</text>
  <line x1="146" y1="44" x2="164" y2="44"/>
  <path d="M172 44 L164 40.5 L164 47.5 Z" fill="#000000" stroke="none"/>
  <text x="250" y="48" text-anchor="middle" font-size="13" fill="#000000" stroke="none"><tspan font-weight="bold">e</tspan><tspan font-size="9" baseline-shift="sub">464</tspan></text>
  <text x="36" y="78" text-anchor="middle" font-size="13" fill="#000000" stroke="none">cat</text>
  <line x1="58" y1="74" x2="84" y2="74"/>
  <path d="M92 74 L84 70.5 L84 77.5 Z" fill="#000000" stroke="none"/>
  <text x="118" y="78" text-anchor="middle" font-size="13" fill="#000000" stroke="none">3797</text>
  <line x1="146" y1="74" x2="164" y2="74"/>
  <path d="M172 74 L164 70.5 L164 77.5 Z" fill="#000000" stroke="none"/>
  <text x="250" y="78" text-anchor="middle" font-size="13" fill="#000000" stroke="none"><tspan font-weight="bold">e</tspan><tspan font-size="9" baseline-shift="sub">3797</tspan></text>
  <text x="36" y="108" text-anchor="middle" font-size="13" fill="#000000" stroke="none">sat</text>
  <line x1="58" y1="104" x2="84" y2="104"/>
  <path d="M92 104 L84 100.5 L84 107.5 Z" fill="#000000" stroke="none"/>
  <text x="118" y="108" text-anchor="middle" font-size="13" fill="#000000" stroke="none">3332</text>
  <line x1="146" y1="104" x2="164" y2="104"/>
  <path d="M172 104 L164 100.5 L164 107.5 Z" fill="#000000" stroke="none"/>
  <text x="250" y="108" text-anchor="middle" font-size="13" fill="#000000" stroke="none"><tspan font-weight="bold">e</tspan><tspan font-size="9" baseline-shift="sub">3332</tspan></text>
  <text x="250" y="134" text-anchor="middle" font-size="11" fill="#000000" stroke="none">row <tspan font-style="italic">t</tspan> is the embedding of token <tspan font-style="italic">t</tspan></text>
</svg>
