<svg xmlns="http://www.w3.org/2000/svg" viewBox="0 0 360 150" fill="none" stroke="#000000" stroke-width="1.6" stroke-linecap="round" stroke-linejoin="round">
  <title>A residual connection</title>
  <text x="22.0" y="104.0" text-anchor="middle" font-size="14" font-style="italic" fill="#000000" stroke="none">x</text>
  <line x1="34" y1="100" x2="80" y2="100" stroke="#000000"/>
  <circle cx="80" cy="100" r="3" fill="#000000" stroke="none"/>
  <line x1="80.0" y1="100.0" x2="128.0" y2="100.0" stroke="#000000"/>
  <path d="M136.0 100.0 L128.0 103.4 L128.0 96.6 Z" fill="#000000" stroke="none"/>
  <rect x="138.0" y="82.0" width="84.0" height="36.0" rx="4" stroke="#000000"/>
  <text x="180.0" y="104.2" text-anchor="middle" font-size="12" font-style="italic" fill="#000000" stroke="none">sublayer f</text>
  <line x1="222.0" y1="100.0" x2="260.0" y2="100.0" stroke="#000000"/>
  <path d="M268.0 100.0 L260.0 103.4 L260.0 96.6 Z" fill="#000000" stroke="none"/>
  <circle cx="280" cy="100" r="12" stroke="#000000"/>
  <line x1="274" y1="100" x2="286" y2="100" stroke="#000000"/>
  <line x1="280" y1="94" x2="280" y2="106" stroke="#000000"/>
  <path d="M80 100 L80 52 Q80 34 98 34 L262 34 Q280 34 280 52 L280 80" stroke="#0000ff" stroke-width="2"/>
  <path d="M280.0 88.0 L276.6 80.0 L283.4 80.0 Z" fill="#0000ff" stroke="none"/>
  <text x="180.0" y="26.0" text-anchor="middle" font-size="11" font-style="italic" fill="#000000" stroke="none">skip path: the input itself</text>
  <line x1="292.0" y1="100.0" x2="332.0" y2="100.0" stroke="#000000"/>
  <path d="M340.0 100.0 L332.0 103.4 L332.0 96.6 Z" fill="#000000" stroke="none"/>
  <text x="316.0" y="130.0" text-anchor="middle" font-size="13" font-style="italic" fill="#000000" stroke="none">x + f(x)</text>
</svg>
